<svg xmlns="http://www.w3.org/2000/svg" width="64.26" height="64.26" viewBox="0 0 64.26 64.26"><g id="Layer_2" data-name="Layer 2"><g id="Layer_1-2" data-name="Layer 1"><g id="ns_youtube"><rect width="64.26" height="64.26" style="fill:#ff2c2c"/><path d="M51.19,21.67a5.21,5.21,0,0,0-3.5-3.79C44.58,17,32.13,17,32.13,17s-12.45,0-15.56.88a5.33,5.33,0,0,0-3.5,3.83C12.25,25,12.25,32,12.25,32s0,7,.82,10.34a5.18,5.18,0,0,0,3.5,3.79c3.15.92,15.56.92,15.56.92s12.45,0,15.56-.88a5.21,5.21,0,0,0,3.5-3.79C52,39,52,32.05,52,32.05S52,25,51.19,21.67Z" style="fill:#fff"/><path d="M28.31,38.46,38.66,32,28.31,25.57Z" style="fill:#ff2c2c"/></g></g></g></svg>