<?xml version="1.0" encoding="UTF-8"?><svg id="Layer_1" xmlns="http://www.w3.org/2000/svg" viewBox="0 0 16 16"><defs><style>.cls-1{fill:#1b1464;opacity:.15;}.cls-1,.cls-2,.cls-3,.cls-4{stroke-width:0px;}.cls-2{fill:#fce3e3;}.cls-3{fill:#fff;}.cls-4{fill:red;}</style></defs><rect class="cls-2" width="16" height="16"/><g id="youtube-v2"><path class="cls-4" d="m15.19,4.1c-.17-.69-.68-1.24-1.32-1.43-1.17-.35-5.87-.35-5.87-.35,0,0-4.7,0-5.87.33-.63.19-1.15.75-1.32,1.44-.31,1.27-.31,3.9-.31,3.9,0,0,0,2.65.31,3.9.17.69.68,1.24,1.32,1.43,1.19.35,5.87.35,5.87.35,0,0,4.7,0,5.87-.33.64-.19,1.15-.73,1.32-1.43.31-1.27.31-3.9.31-3.9,0,0,.01-2.65-.31-3.92Z"/><path class="cls-1" d="m6.88,10.76l3.9-2.43-3.9-2.43v4.86Z"/><path class="cls-3" d="m6.56,10.43l3.9-2.43-3.9-2.43v4.86Z"/></g></svg>